<svg width="168" height="216" viewBox="0 0 168 216" fill="none" xmlns="http://www.w3.org/2000/svg">
<path d="M90.0138 1.45417C89.4121 2.0559 88.5095 3.29277 87.9747 4.19536C87.0052 5.86681 87.0052 5.86681 86.4369 4.1285C85.0998 0.0167239 82.5591 0.417873 80.4531 5.06451C79.5505 7.07026 79.5505 7.07026 79.1494 4.99766C78.2468 0.117011 75.305 0.551589 73.433 5.86681C72.3967 8.77514 72.2964 8.70828 71.5276 4.66336C70.7587 0.752163 68.3518 1.85532 66.2123 7.10369C65.2429 9.54401 65.2429 9.54401 64.8083 8.0397C63.7052 4.26222 61.3317 5.1648 59.9945 9.8783C59.4597 11.884 59.4597 11.884 59.0251 10.3797C57.7213 5.49909 55.515 6.30139 53.7099 12.2518C52.473 16.2967 52.4396 16.2967 51.069 12.3855C49.7318 8.50771 48.8626 8.37399 48.7289 12.0178C48.3946 20.7427 53.7099 23.3836 56.1836 15.695C56.9859 13.2212 56.9859 13.2212 57.3536 14.3244C58.4568 17.333 60.964 16.5641 62.2343 12.8535C62.6354 11.5832 63.0031 10.8477 63.0031 11.2489C63.0366 12.118 64.3737 13.3884 65.2763 13.3884C66.2792 13.3884 67.8504 11.3492 68.8532 8.74171C69.5552 6.86968 69.689 6.70254 69.689 7.57169C69.8227 13.8898 74.1016 13.8229 75.773 7.43798C76.5753 4.52965 76.5753 4.52965 76.8428 6.70254C77.4779 11.9175 80.52 11.8172 82.5257 6.53539C83.7626 3.3262 84.0969 2.89162 84.0969 4.3625C84.1303 9.94516 87.8409 10.2794 90.3147 4.89737C91.2841 2.75791 91.7856 2.85819 91.7856 5.13137C91.7856 8.20685 95.2956 10.9146 96.4656 8.74171C96.9671 7.8057 96.9002 7.60512 95.8305 6.23453C95.2622 5.53252 94.5936 4.26222 94.2927 3.35963C93.3233 0.417873 91.6853 -0.317567 90.0138 1.45417Z" fill="black"/>
<path d="M138.118 6.26798C133.539 15.7953 130.63 22.8822 131.165 23.2165C131.767 23.5842 133.94 19.907 136.413 14.4581C137.851 11.3158 137.851 11.3158 138.085 12.6864C138.687 16.3636 140.926 16.7647 143.668 13.6892C145.439 11.6835 145.439 11.6835 145.439 13.2547C145.439 15.695 146.442 16.163 149.083 14.9595C150.153 14.4581 150.888 14.2575 150.721 14.4581C150.521 14.6921 149.083 16.4973 147.512 18.4696C143.567 23.3837 142.197 26.5594 144.37 25.8908C145.506 25.5566 145.807 25.2223 148.415 21.4448C149.752 19.5059 151.523 16.8984 152.393 15.695C155.234 11.6501 153.964 9.87832 149.685 11.8841C148.682 12.3521 147.846 12.7198 147.779 12.7198C147.746 12.7198 147.813 12.0846 147.946 11.3158C148.682 7.40457 145.64 7.07028 142.531 10.7475C140.826 12.7867 140.793 12.7532 140.592 8.60802C140.392 4.5631 139.389 3.62709 138.118 6.26798Z" fill="black"/>
<path d="M16.6705 7.37116C14.1633 8.64147 12.5922 11.8172 11.2216 18.4028C10.1853 23.4505 9.98471 26.3589 10.6867 26.6263C11.6562 26.994 11.8902 26.3589 12.7593 21.5451C14.3973 12.0847 16.2359 8.80861 19.5789 9.10947C23.9915 9.54405 23.5569 12.5527 19.1108 12.5527C16.0688 12.5527 15.2331 13.121 16.3697 14.3578C18.2751 16.4304 23.256 14.8593 24.2589 11.9175C25.3621 8.54118 20.3143 5.53256 16.6705 7.37116Z" fill="black"/>
<path d="M91.4513 13.121C91.4848 13.7227 91.6853 15.1936 91.9528 16.397C97.3349 40.4325 89.3119 56.0105 71.5611 56.0105C61.0643 56.0105 58.5571 52.935 56.8523 37.8919C55.7491 28.2978 55.348 25.8574 54.8131 25.3894C52.2725 23.2834 53.7768 47.1183 56.518 52.5004C62.4349 64.2006 86.8381 61.426 93.1228 48.3552C96.7331 40.8002 96.7331 21.6788 93.0894 14.1238C91.9528 11.8172 91.4513 11.4829 91.4513 13.121Z" fill="black"/>
<path d="M15.7679 17.7007C15.1328 18.737 18.5759 20.2748 20.214 19.7065C21.852 19.0713 20.9828 17.9013 18.9771 18.0016C18.0077 18.035 16.9379 17.9347 16.6036 17.7342C16.2025 17.5336 15.8682 17.5336 15.7679 17.7007Z" fill="black"/>
<path d="M22.387 18.9709C21.5847 22.715 20.7155 25.1887 19.7126 26.8602C18.0078 29.6348 18.4758 30.972 20.5484 29.2336C21.9524 28.0636 22.7881 26.3587 23.2561 23.7847C23.8244 20.5421 23.0555 16.096 22.387 18.9709Z" fill="black"/>
<path d="M14.6313 21.478C13.2941 23.1495 13.595 26.5927 15.1327 26.9604C16.4365 27.2947 16.6371 26.7598 16.403 23.7846C16.1356 21.01 15.6007 20.308 14.6313 21.478Z" fill="black"/>
<path d="M75.0711 22.3137C75.0711 22.8486 75.3051 24.5201 75.6059 26.0912C76.3748 30.5039 76.1742 31.2393 73.0653 34.6491C68.9536 39.1286 67.9507 41.97 69.3547 44.9452C70.7922 47.8535 74.3022 48.823 76.4417 46.8841C77.8123 45.6472 77.478 45.1458 75.3719 45.1458C71.1264 45.1458 71.1264 41.6357 75.3385 37.7245C79.1828 34.1811 80.1189 32.0082 79.3834 28.4647C78.7817 25.5564 76.542 21.4111 75.5391 21.4111C75.2382 21.4111 75.0711 21.7454 75.0711 22.3137Z" fill="black"/>
<path d="M81.8572 22.782C78.9823 24.2195 79.5506 24.9549 83.6958 25.1889C87.6739 25.3895 88.543 24.8212 87.0722 22.9492C86.203 21.846 83.9298 21.7457 81.8572 22.782Z" fill="black"/>
<path d="M121.939 23.7514C121.604 24.1191 121.069 25.2891 120.735 26.3254C118.596 33.2118 108.233 46.0151 97.1677 55.3418C89.4122 61.8939 92.1199 62.3954 101.647 56.211C109.57 51.0629 120.969 36.2873 123.075 28.4314C123.41 27.228 123.777 26.1248 123.911 25.9911C124.045 25.824 126.686 26.8268 129.761 28.1974C139.188 32.3426 141.929 33.0446 141.929 31.3063C141.929 29.1 123.476 22.1133 121.939 23.7514Z" fill="black"/>
<path d="M67.0147 27.7627C65.009 28.799 64.2067 30.7713 65.8781 30.5039C66.2459 30.437 67.4493 30.3033 68.5525 30.2365C72.2297 29.9356 72.9317 29.4676 71.8954 27.8964C71.2268 26.8936 68.7865 26.8267 67.0147 27.7627Z" fill="black"/>
<path d="M10.6533 29.8021C9.11555 30.2367 9.24927 30.9721 10.8873 31.2395C12.425 31.4735 12.5587 31.8413 11.3887 32.677C9.08212 34.315 9.04869 34.3484 9.5167 34.9167C9.7507 35.2176 10.2521 35.4516 10.5864 35.4516C11.9905 35.4516 10.9541 36.655 9.2827 36.9893C7.34381 37.3905 7.07638 39.1288 8.94841 39.1288C10.3859 39.1288 9.21584 39.9645 7.51096 40.1651C4.5692 40.466 3.63318 41.2683 4.73634 42.5051C6.24065 44.1766 11.5224 41.7028 11.1547 39.5299C11.1213 39.2291 11.489 38.5271 12.0239 38.0256C12.7259 37.3236 12.9265 36.8556 12.8596 35.953C12.7593 35.1507 12.9599 34.5824 13.4948 34.0476C15.7011 31.6407 13.8625 28.8995 10.6533 29.8021Z" fill="black"/>
<path d="M4.2349 31.3398C1.29314 34.6493 -0.512029 40.5328 1.02571 41.6694C2.09544 42.4717 2.86431 41.7029 2.86431 39.8643C2.86431 37.5911 3.70003 34.6159 5.0372 32.1756C6.74208 29.1335 6.44122 28.8327 4.2349 31.3398Z" fill="black"/>
<path d="M144.035 35.2174C141.495 37.1563 126.886 52.634 120.301 60.3895C106.963 76.0343 101.881 97.1949 107.23 114.678C110.406 125.041 109.236 126.646 97.6358 127.883C94.8946 128.184 90.6157 128.652 88.1754 128.919C65.4102 131.393 62.669 130.657 61.031 121.632C59.5935 113.675 56.1838 104.75 49.9659 92.6486C44.6842 82.3858 42.3107 79.4775 34.856 74.2626C29.3736 70.4182 29.4739 70.6188 31.6134 66.8748C35.6249 59.9549 38.3326 42.8058 35.4577 42.8058C34.7891 42.8058 34.7557 42.9395 34.154 47.0179C33.0508 54.5729 31.0451 59.8212 27.5016 64.4679C23.1558 70.1174 24.025 72.4574 32.4491 78.0401C39.8704 82.9207 41.5752 84.8596 47.2248 94.8215C53.3089 105.485 56.8858 114.177 58.2229 121.398C60.4961 133.699 63.3041 134.569 93.1229 132.061C112.077 130.457 114.685 127.783 110.506 114.043C104.723 94.9886 110.172 76.402 127.053 57.6483C129.995 54.3723 134.274 49.6254 136.547 47.0847C144.737 37.9586 148.749 31.5737 144.035 35.2174Z" fill="black"/>
<path d="M18.7432 36.1202C18.3086 36.8222 25.6296 48.3886 27.1005 49.3581C30.9448 51.8653 27.9696 45.9817 21.3172 37.9253C19.5455 35.7859 19.1443 35.485 18.7432 36.1202Z" fill="black"/>
<path d="M38.2992 41.8363C38.2992 42.0369 38.9343 42.8392 39.6698 43.608C41.6421 45.5804 43.5141 48.121 46.1216 52.333C51.2362 60.6234 53.7434 63.6321 57.8552 66.4401C64.9087 71.2205 67.4828 69.9502 60.8638 64.9692C56.0835 61.3923 54.6126 59.7543 50.4339 53.4362C46.6899 47.7867 43.3804 43.9089 41.1741 42.672C39.3689 41.6357 38.2992 41.3014 38.2992 41.8363Z" fill="black"/>
<path d="M11.0544 44.2769C10.787 44.912 10.3859 46.1155 10.1518 46.9178C9.7507 48.4221 9.7507 48.4221 7.97896 48.6561C4.20147 49.1241 4.60262 50.595 8.81469 51.7984C10.2187 52.233 11.957 52.7679 12.6925 53.0353C13.829 53.4699 14.0631 53.4699 14.7651 53.0019C16.2694 52.0324 15.4002 50.0267 13.1605 49.2913C12.5253 49.0907 12.4919 48.9235 12.6925 46.7841C13.0602 43.2072 12.0907 41.7697 11.0544 44.2769Z" fill="black"/>
<path d="M15.2332 43.8088C15.2332 47.018 23.5904 56.445 25.7299 55.6427C27.4348 54.9741 25.8636 52.7009 17.8741 44.4105C16.5035 43.0065 15.2332 42.7056 15.2332 43.8088Z" fill="black"/>
<path d="M78.4475 67.5433C73.8677 68.4793 73.4666 68.9139 72.8649 73.3265C72.5306 75.6665 73.8009 77.9063 75.4723 77.9063C76.6089 77.9397 76.7426 78.4077 76.074 80.5472C75.4723 82.4192 74.0683 89.4727 72.4971 98.298C72.2297 99.8692 71.7951 102.042 71.5277 103.145C70.4914 107.625 72.4637 113.141 78.0129 121.197C81.6901 126.546 81.6567 126.546 84.6987 121.598C89.7465 113.408 89.9471 111.536 86.9385 98.6323C86.5039 96.6934 85.6013 92.7822 84.9328 89.9407C83.0942 81.8509 82.1916 78.1068 81.9576 77.5386C81.7904 77.1374 82.0579 76.87 83.0273 76.5022C84.331 76.0008 84.331 76.0008 84.5316 73.1928C85.033 66.741 84.5985 66.3398 78.4475 67.5433Z" fill="black"/>
<path d="M115.52 130.123C115.52 132.496 120.133 135.404 129.895 139.215C143.634 144.631 143.801 144.831 143.3 156.364C143.166 159.44 143.768 161.278 145.941 164.32C151.824 172.678 151.991 171.608 144.403 174.416C137.249 177.057 134.642 177.659 131.232 177.458C126.786 177.191 125.917 176.322 124.045 170.003C121.237 160.643 117.927 157.468 107.397 154.091C96.1983 150.514 95.3625 149.779 93.7914 142.157C92.7885 137.143 91.9528 137.978 91.9528 144.096C91.9528 152.152 94.4599 154.559 105.659 157.3C116.055 159.808 118.061 161.646 120.501 171.006C123.443 182.339 129.694 183.709 147.445 176.823C154.9 173.948 155.301 172.109 150.153 164.889C146.442 159.64 146.476 159.808 146.275 153.289C145.974 142.959 144.202 141.054 130.864 136.541C124.513 134.401 121.504 133.064 118.195 130.925C116.289 129.655 115.52 129.454 115.52 130.123Z" fill="black"/>
<path d="M61.3652 140.653C61.3652 145.5 60.6297 152.119 59.5266 157.3C55.9497 174.082 55.6488 191.365 58.858 194.206C62.5686 197.449 79.6843 197.348 82.7598 194.072C83.4952 193.27 83.4952 193.27 83.5955 169.937C83.6624 153.289 83.8295 145.834 84.1304 143.895C84.6652 140.318 84.4312 139.65 83.0941 140.92C79.9517 143.962 79.2497 159.172 81.0549 186.885C81.456 193.17 81.7569 192.936 72.2296 193.17C65.0089 193.337 62.5352 193.036 61.4989 191.833C60.1617 190.362 60.73 178.996 62.9029 164.153C64.4072 154.058 64.5075 148.609 63.3709 143.126C62.3012 137.845 61.3652 136.708 61.3652 140.653Z" fill="black"/>
<path d="M147.077 178.929C146.308 180.166 147.345 182.874 148.582 182.874C150.353 182.84 150.587 180.868 148.983 179.464C147.846 178.428 147.445 178.327 147.077 178.929Z" fill="black"/>
<path d="M160.315 180.367C151.055 182.071 141.762 187.487 140.425 192C138.754 197.616 141.662 200.056 148.013 198.385C164.694 194.073 175.96 177.559 160.315 180.367Z" fill="black"/>
<path d="M140.258 181.369C139.723 182.038 140.158 184.445 140.993 185.281C141.729 186.016 143.2 185.983 143.701 185.18C144.737 183.509 141.495 179.898 140.258 181.369Z" fill="black"/>
<path d="M65.6775 198.117C65.0089 198.92 64.8752 201.728 65.4769 202.229C66.9812 203.466 68.3852 201.427 67.5161 199.287C66.9144 197.783 66.2792 197.382 65.6775 198.117Z" fill="black"/>
<path d="M73.8677 199.154C73.3997 200.257 73.3997 200.524 73.8008 201.26C74.904 203.265 76.776 201.728 76.0071 199.388C75.4054 197.616 74.5362 197.516 73.8677 199.154Z" fill="black"/>
<path d="M66.7139 204.135C56.8857 207.043 58.0892 212.793 69.0539 215.133C79.8849 217.439 92.3205 211.656 87.7407 206.441C85.267 203.667 72.9651 202.296 66.7139 204.135Z" fill="black"/>
</svg>
