<svg width="158" height="228" viewBox="0 0 158 228" fill="none" xmlns="http://www.w3.org/2000/svg">
<path d="M90.0776 0.983032C88.6067 1.61818 87.1358 2.95535 86.4004 4.32594C85.7987 5.4291 85.7318 5.46253 84.2275 5.29538C82.4223 5.09481 81.0517 5.6631 79.8149 7.16741C79.2131 7.83599 78.8454 8.03657 78.5111 7.83599C76.8397 6.76626 74.7002 7.96971 73.3631 10.6775C72.4605 12.4826 72.4605 12.4826 71.2905 11.9812C66.7107 10.0757 61.9972 17.731 65.5407 21.2745C66.7775 22.5114 67.3124 22.1102 67.0784 20.1379C66.5435 15.859 69.3181 12.7166 71.5245 15.0567C72.9953 16.6278 73.8979 15.9927 74.3659 13.1846C74.8339 10.176 76.5388 8.97258 78.1434 10.5437C79.6812 11.9812 80.0154 11.8809 81.152 9.54087C82.1215 7.60199 83.2246 7.20084 84.7958 8.304C86.4673 9.44059 87.0021 9.27344 87.8713 7.20084C89.7099 2.92192 92.5513 1.85219 95.0585 4.49308C96.262 5.76339 97.3317 5.83025 98.6689 4.69366C100.842 2.85506 103.717 3.75765 104.92 6.63255C105.856 8.83886 106.458 8.97258 107.929 7.2677C109.767 5.12824 111.706 5.36224 112.977 7.86942C113.979 9.80831 114.681 10.0757 116.654 9.24001C119.662 7.93628 120.398 8.67172 120.063 12.6163C119.896 14.8227 120.765 15.7921 122.604 15.391C125.245 14.8227 127.184 16.6613 126.85 19.369C126.582 21.4082 127.117 22.2439 128.655 22.2439C131.53 22.2439 132.165 26.4894 129.791 29.8657C128.22 32.0721 128.32 32.6069 130.293 32.6069C134.906 32.6069 135.775 22.6451 131.396 20.0376C130.794 19.6699 130.493 19.2687 130.594 18.901C131.162 16.7281 128.822 13.6527 125.847 12.7166C124.042 12.1818 124.008 12.1149 124.008 10.9115C124.008 6.93341 120.598 4.32594 116.988 5.56281C116.019 5.93053 115.818 5.86368 115.35 5.26195C113.812 3.28964 110.536 2.62106 108.363 3.79107C107.26 4.35937 107.26 4.35937 105.956 3.15592C103.917 1.21704 100.775 0.749029 98.2009 2.05276C97.3651 2.48734 97.1646 2.45391 95.6937 1.5179C93.9554 0.414738 91.8493 0.214163 90.0776 0.983032Z" fill="black"/>
<path d="M89.5761 8.57134C85.3974 10.2428 84.2274 17.0958 87.5369 20.5724C88.7738 21.8761 88.7738 21.8761 86.9352 22.8456C83.7594 24.517 83.5588 24.517 83.5588 22.879C83.5588 18.8006 79.3468 15.324 76.0707 16.6946C71.1901 18.7338 74.065 27.5256 79.6476 27.5925C80.7174 27.5925 80.7174 27.6259 79.9151 29.1971C76.6056 35.6155 70.8892 35.7492 70.2875 29.4311C69.9866 26.3222 68.5158 26.1216 67.8472 29.0968C65.6409 38.8246 78.511 38.5572 82.556 28.7959C82.9905 27.7596 83.492 26.9239 83.6925 26.9239C84.2943 26.9239 88.172 24.985 89.7432 23.9153C91.1138 22.9793 91.3144 22.9124 92.6515 23.2467C94.7576 23.7147 99.0699 23.6144 102.112 22.9793C104.786 22.411 104.786 22.411 105.856 23.815C107.026 25.3193 110.57 27.7931 111.974 28.0939C112.809 28.2611 112.91 28.4616 113.077 30.2334C113.612 36.1169 119.395 40.2621 124.443 38.3232C125.813 37.7883 125.613 37.5878 122.036 35.8829C118.425 34.178 117.422 33.1083 117.088 30.6011C116.888 29.1302 116.888 29.1302 120.331 28.7959C126.515 28.1608 127.719 22.9793 121.835 22.1101C118.893 21.6421 116.085 22.8456 114.347 25.2524C113.344 26.6565 111.84 26.0882 109.533 23.4807C107.795 21.5418 107.795 21.3412 109.366 20.6392C115.55 17.8312 117.088 11.4128 111.806 10.2094C106.859 9.10621 102.279 14.388 103.717 19.6029C104.017 20.7061 99.9056 21.475 95.7939 21.1072C92.919 20.8398 93.0527 21.0738 94.2896 18.4329C96.9973 12.6497 94.1893 6.73275 89.5761 8.57134ZM92.3841 11.9477C93.5876 13.686 92.217 19.8035 90.6792 19.5026C89.7098 19.3355 88.5732 17.2963 88.5732 15.6917C88.5732 12.282 90.9801 9.94194 92.3841 11.9477ZM112.475 13.4186C113.645 14.5886 112.107 16.962 109.232 18.4329C107.16 19.5026 106.959 19.4692 106.959 17.9649C106.959 14.6889 110.67 11.6134 112.475 13.4186ZM79.2465 19.8035C81.6199 21.2075 82.0545 25.1187 79.8148 24.8179C77.809 24.5504 76.5387 23.113 76.5387 21.1407C76.5387 19.0346 77.3076 18.6669 79.2465 19.8035ZM123.941 24.985C124.576 25.6202 124.443 25.8542 123.039 26.5562C121.334 27.4588 117.322 27.8933 117.322 27.1913C117.322 25.3862 122.571 23.6144 123.941 24.985Z" fill="black"/>
<path d="M32.0113 27.6929C27.4315 30.7683 25.8269 34.0444 27.0638 37.755C27.4649 38.9585 27.4315 39.0253 25.9272 40.6299C24.356 42.3014 24.1555 42.7694 24.6903 43.6051C25.0915 44.2403 26.1612 43.8057 27.8326 42.3014C29.0361 41.2651 29.0361 41.2651 30.4735 42.0005C39.466 46.6471 50.0296 33.1752 41.7391 27.6929C36.2568 24.0491 33.8165 30.2 39.1651 34.1781C41.3046 35.7158 41.8729 34.6795 39.9005 32.8744C37.8279 30.9689 37.1259 28.7292 38.764 29.1637C39.7 29.3977 41.9731 32.0721 42.4412 33.4761C44.2463 38.8916 34.2176 43.672 30.273 39.2593C27.2309 35.9164 28.2004 33.4761 34.8528 27.6929C36.3905 26.3891 36.6579 25.5868 35.5882 25.5868C35.3208 25.5868 33.7162 26.5228 32.0113 27.6929Z" fill="black"/>
<path d="M148.645 35.6823C145.135 40.0949 142.595 44.5075 143.096 45.4101C143.798 46.6136 145.336 45.711 146.907 43.2038C147.509 42.2344 147.509 42.2344 147.977 43.1035C148.779 44.6078 149.916 44.2735 152.557 41.6995C154.897 39.4598 154.863 39.5935 152.222 43.1369C149.882 46.2793 151.019 48.4856 154.027 46.647C155.599 45.6776 155.665 45.8113 154.295 47.3156C152.857 48.9202 152.623 50.4913 153.86 50.1571C157.136 49.221 158.774 43.5381 155.599 44.1064C154.462 44.3404 154.462 44.3404 155.799 41.7998C158.373 36.8189 157.003 35.9163 152.356 39.5266C151.286 40.3289 150.417 40.8972 150.417 40.7635C150.417 40.6632 150.751 39.3595 151.119 37.922C152.222 33.944 150.952 32.8074 148.645 35.6823Z" fill="black"/>
<path d="M30.3065 35.5153C28.1336 37.6882 35.0869 41.3989 37.3601 39.2928C39.7335 37.0865 39.4661 35.4819 36.7918 35.8496C34.4183 36.1505 32.7469 36.0836 32.3123 35.6491C31.9111 35.2479 30.6408 35.1476 30.3065 35.5153Z" fill="black"/>
<path d="M97.0309 36.6853C96.8303 36.9194 96.4292 38.1228 96.1283 39.3262C94.7911 45.1763 94.1226 45.9786 90.8131 45.9786C86.3336 45.9786 83.3584 50.7256 85.3976 54.6702C86.8685 57.5451 89.0413 57.0102 88.7405 53.8679C88.4396 50.759 88.9745 49.9901 91.5151 49.9901C94.4569 49.9567 96.496 48.5861 97.432 45.9786C98.6689 42.502 98.3346 35.0808 97.0309 36.6853Z" fill="black"/>
<path d="M73.0622 39.3597C66.8778 45.8116 70.321 58.5146 79.4471 62.8938C94.8914 70.3485 113.745 61.1221 117.356 44.3407C118.292 39.9949 115.35 39.8946 114.113 44.2404C110.068 58.3475 96.5294 65.5347 83.1578 60.6875C74.4996 57.5452 70.7222 48.8536 74.4328 40.5298C75.6697 37.7886 75.0679 37.2537 73.0622 39.3597Z" fill="black"/>
<path d="M85.5313 38.5906C83.559 39.2258 82.2218 40.8638 83.6593 40.9975C85.3307 41.1313 91.8494 40.8304 92.3174 40.5964C94.7243 39.2927 88.9076 37.5878 85.5313 38.5906Z" fill="black"/>
<path d="M12.0875 40.1284C8.57743 41.7664 5.93654 45.4102 6.53826 47.8171C6.83912 49.054 7.34056 48.7197 8.61086 46.4465C10.0483 43.9059 12.0206 41.9001 14.2269 40.7301C17.1687 39.1924 15.2632 38.6575 12.0875 40.1284Z" fill="black"/>
<path d="M101.878 39.8611C99.6384 40.1954 99.839 41.7666 102.179 42.1343C103.048 42.268 104.252 42.5689 104.853 42.8697C106.959 43.8726 108.564 42.5354 107.127 40.9643C106.659 40.4294 103.75 39.5268 103.015 39.6605C102.881 39.694 102.38 39.7943 101.878 39.8611Z" fill="black"/>
<path d="M19.3083 42.6692C18.4057 43.1707 18.5729 43.5049 20.0437 43.9395C21.5146 44.3741 21.5481 44.9758 20.0772 44.9758C18.4726 44.9758 17.8374 45.7113 18.3723 46.9816C18.9406 48.3856 18.4392 48.7533 16.3665 48.4525C12.7562 47.8842 11.185 48.8536 13.6588 50.1573C15.8317 51.2605 14.6282 51.7285 12.3216 50.6588C9.94817 49.589 8.71129 49.8565 9.1793 51.2939C9.68073 52.8651 14.2939 53.4 15.4305 51.9959C15.7648 51.5614 15.9988 51.0265 15.8985 50.7591C15.7648 50.4582 16.0323 50.3245 16.7343 50.3245C18.6732 50.3245 20.0437 49.2213 20.0437 47.6502C20.0437 47.2156 20.4449 46.9481 21.5481 46.6807C24.1555 46.0121 24.3895 44.0732 21.9492 42.9367C20.3446 42.2346 20.0772 42.2012 19.3083 42.6692Z" fill="black"/>
<path d="M137.413 45.2764C136.711 45.7109 137.246 47.2153 138.316 47.8838C138.817 48.2181 139.285 48.5858 139.385 48.6861C139.486 48.8199 140.087 49.1207 140.723 49.3881C142.528 50.157 149.682 54.9708 150.45 55.9737C151.721 57.5783 150.417 61.5563 145.369 71.3845C140.589 80.7446 134.639 84.6558 119.997 88.1324C112.442 89.9042 109.6 91.0408 112.408 91.1411C120.799 91.4419 133.97 87.163 140.656 81.9481C146.038 77.7026 155.064 59.5172 153.793 55.3385C152.891 52.263 139.452 44.0395 137.413 45.2764Z" fill="black"/>
<path d="M21.3809 50.8257C21.3809 52.1629 23.3532 56.0072 24.2558 56.4083C26.3284 57.3444 26.0609 55.4389 23.7209 52.2297C21.9492 49.8228 21.3809 49.4885 21.3809 50.8257Z" fill="black"/>
<path d="M132.733 50.9931C131.964 51.5614 130.627 52.932 129.758 54.0686C120.398 66.2367 112.575 74.1929 107.193 76.934C105.488 77.8366 105.288 78.5052 106.692 78.6723C109.467 79.0066 120.231 70.9168 126.449 63.8633C132.967 56.4754 137.246 47.7505 132.733 50.9931Z" fill="black"/>
<path d="M31.1756 52.3303C30.6741 52.5309 29.8384 53.8346 28.7018 56.0744C26.7629 59.9187 25.5261 61.891 23.6206 63.9302C22.016 65.6685 21.782 67.1394 23.0857 67.3065C24.9243 67.5071 28.6015 62.0247 30.4401 56.3418C32.2453 50.6923 36.4239 53.166 41.0371 62.6933C45.9846 72.9895 48.7258 75.7975 56.0134 78.2713C60.6266 79.809 59.5234 77.703 54.3419 75.0955C49.2607 72.5549 46.8538 69.7803 42.8089 61.7573C39.0983 54.4364 34.719 50.8929 31.1756 52.3303Z" fill="black"/>
<path d="M9.68064 57.211C5.93659 60.7544 5.93659 60.7544 5.034 59.9187C0.85537 56.0409 -1.65181 59.551 1.9251 64.2979C6.00345 69.7134 11.5527 70.0812 8.74463 64.7325C7.6749 62.6933 8.34348 61.6236 14.4944 55.4726C15.3302 54.6704 15.163 53.6675 14.227 53.6675C13.6587 53.6675 12.2881 54.7038 9.68064 57.211Z" fill="black"/>
<path d="M17.3694 56.4084C17.3694 57.6787 21.3474 61.6902 22.5843 61.6902C23.6206 61.6902 23.5872 61.4896 22.3837 59.5842C20.9129 57.2441 17.3694 54.9709 17.3694 56.4084Z" fill="black"/>
<path d="M67.0115 66.1362C65.4069 66.7713 64.5043 67.4733 63.8023 68.5765C63.2006 69.5794 61.4957 76.2652 61.4957 77.7026C61.4957 79.5746 64.0363 77.2346 65.0058 74.5269C66.9447 68.8773 67.513 68.4428 72.7279 68.1419C75.4022 67.9748 75.8702 67.841 75.8034 67.4065C75.5359 66.0359 69.4184 65.1667 67.0115 66.1362Z" fill="black"/>
<path d="M75.302 69.2119C71.4577 71.7859 71.1568 73.0562 73.7977 75.6637C76.8732 78.7057 77.9764 81.1461 76.7061 82.1489C71.9257 85.8596 71.6583 86.6953 74.4997 89.403C77.9764 92.6791 77.9095 94.0831 73.8312 103.076C68.2485 115.478 66.8445 119.89 66.8445 125.038C66.8445 129.886 68.7165 129.518 68.9505 124.604C69.0842 121.261 70.1205 118.252 74.8675 107.187C79.9487 95.2866 80.1493 92.7125 76.3718 88.5004C75.5026 87.531 74.834 86.6953 74.9009 86.6284C74.9677 86.5616 75.9372 85.8261 77.0403 84.957C80.8178 81.9484 80.7844 80.7783 76.5389 75.2625C74.4663 72.5548 74.4329 72.8222 77.0403 70.5156C78.2104 69.4793 79.113 68.4764 79.0127 68.3427C78.6449 67.7076 76.9401 68.1087 75.302 69.2119Z" fill="black"/>
<path d="M95.8274 69.9472C95.1589 70.5824 95.8274 71.6855 98.2678 74.0256C101.477 77.101 101.477 76.9339 98.8361 79.6751C95.2257 83.4525 94.9917 84.1546 96.4626 86.1269C100.173 90.9741 102.48 101.772 101.243 108.29C99.8055 115.812 100.775 120.425 104.653 124.269C108.764 128.415 111.238 126.777 107.394 122.464C104.151 118.787 103.382 114.642 104.72 107.856C105.789 102.507 104.252 95.6207 100.073 87.1966C99.1703 85.3914 98.6689 83.9206 98.8026 83.6866C98.9363 83.4525 99.7721 82.4162 100.675 81.3799C104.185 77.2682 103.884 75.229 99.2038 71.3847C97.3652 69.8135 96.3623 69.4123 95.8274 69.9472Z" fill="black"/>
<path d="M24.8575 72.3541C27.3647 91.3419 53.8739 103.911 65.2064 91.509C68.5827 87.8318 68.0813 87.4975 63.5349 90.4393C51.467 98.1614 36.5242 91.9436 28.4678 75.8642C25.7266 70.3818 24.4229 69.1115 24.8575 72.3541Z" fill="black"/>
<path d="M84.963 72.0533C82.9238 72.889 83.7261 78.0705 85.899 78.0705C87.2028 78.0705 86.0662 100.501 84.5619 104.479C83.8598 106.285 83.6593 109.394 84.1607 110.396C86.4339 114.876 88.1722 116.38 89.5094 114.976C91.5485 112.837 93.3203 108.491 92.7854 106.987C92.4845 106.251 92.284 105.148 92.2505 104.546C92.2505 103.945 92.0165 102.073 91.7491 100.368C91.4817 98.6963 90.9468 93.9828 90.5791 89.9379C90.1779 85.8929 89.7768 81.6809 89.6765 80.5777C89.5094 78.572 89.5094 78.572 90.6125 78.0705C91.2477 77.8031 91.7157 77.4688 91.6822 77.3017C91.6154 77.1679 91.582 76.0982 91.582 74.9282C91.582 71.9864 88.4396 70.6493 84.963 72.0533Z" fill="black"/>
<path d="M117.991 96.7238C117.991 97.0915 118.526 99.3981 119.161 101.905C120.966 108.959 121.2 112.402 120.498 121.662C119.428 135.602 120.063 143.123 122.403 145.096C124.276 146.7 124.71 145.029 124.108 138.109C123.908 135.502 123.64 129.117 123.507 123.868C123.273 113.037 122.972 109.427 121.835 105.181C120.331 99.6321 117.991 94.4506 117.991 96.7238Z" fill="black"/>
<path d="M58.7546 100.936C58.32 101.237 57.9857 102.607 57.4843 106.017C56.5483 112.068 55.3783 117.583 54.1414 121.495C53.0048 125.005 52.8377 128.18 53.6065 130.053C54.4757 132.092 54.7431 131.724 55.8463 127.044C56.0468 126.108 56.6486 124.102 57.15 122.531C58.554 118.285 59.5235 112.101 59.724 105.883C59.9246 100.468 59.8578 100.1 58.7546 100.936Z" fill="black"/>
<path d="M76.3383 124.871C69.8864 125.807 69.6524 127.947 76.0374 127.646C80.9849 127.412 83.8598 127.813 89.0413 129.451C93.8217 130.989 96.9974 131.523 101.009 131.557C107.828 131.557 107.661 129.651 100.775 128.883C96.7634 128.448 94.3565 127.913 90.2113 126.543C84.8292 124.737 80.7175 124.236 76.3383 124.871Z" fill="black"/>
<path d="M107.561 128.381C107.461 128.482 107.728 129.819 108.196 131.323C108.731 133.162 109.099 135.502 109.266 138.443C109.667 144.594 111.573 147.87 115.417 149.007C118.626 149.976 119.696 147.837 116.821 146.166C113.411 144.193 112.91 143.391 111.807 138.009C110.804 133.262 108.33 127.612 107.561 128.381Z" fill="black"/>
<path d="M62.8329 131.59C60.894 133.262 57.2168 135.167 52.8042 136.738C44.4469 139.713 42.1403 142.154 41.8394 148.271C41.572 153.854 42.6752 156.662 47.1881 161.71C51.701 166.791 53.9742 172.106 54.275 178.257C54.509 182.804 60.3257 183.205 68.683 179.227C74.7671 176.352 75.0679 175.349 71.959 168.329C69.7527 163.348 68.917 159.838 69.4853 157.966C69.9198 156.528 69.8196 156.562 74.5331 155.826C86.0995 153.988 90.5122 150.177 89.7433 142.756C89.4424 139.914 88.8407 139.947 88.0718 142.789C86.9687 146.934 84.6286 148.372 75.8702 150.277C67.3458 152.149 65.6744 153.553 65.7412 158.768C65.8081 163.014 68.5158 171.103 70.4547 172.808C72.4605 174.547 71.257 175.85 66.1424 177.522C59.1557 179.795 57.4842 179.561 58.1528 176.419C59.1557 171.638 56.6151 165.888 50.9321 159.938C42.6417 151.347 43.21 145.463 52.6036 142.421C60.5931 139.814 64.5043 136.437 64.9055 131.757C65.0392 130.019 64.6381 129.986 62.8329 131.59Z" fill="black"/>
<path d="M92.0833 148.305C91.9496 148.506 92.3842 149.508 93.0193 150.545C96.1282 155.659 96.6965 158.066 96.6965 166.49C96.6965 172.04 96.5962 173.109 95.3259 180.363C90.6124 207.408 92.451 211.452 108.363 209.146C111.104 208.778 114.514 208.444 115.985 208.444C120.465 208.444 121.701 207.508 121.2 204.499C121.033 203.296 120.732 202.694 117.59 196.677C114.414 190.626 113.578 183.272 115.149 175.015C116.787 166.29 114.782 156.462 110.77 153.386C108.163 151.414 107.828 153.386 109.968 157.966C112.542 163.482 112.976 167.761 111.806 175.349C110.336 184.776 111.572 192.498 115.551 198.95C117.289 201.791 118.994 204.867 118.994 205.268C118.994 205.502 117.456 205.569 114.581 205.502C111.639 205.402 108.831 205.536 106.291 205.903C101.911 206.505 99.5046 206.572 98.6354 206.104C96.2285 204.834 96.0614 193.702 98.3011 180.33C100.942 164.284 99.8723 155.124 94.6908 149.575C93.153 147.937 92.4845 147.603 92.0833 148.305Z" fill="black"/>
<path d="M70.0535 180.33C69.7192 180.865 70.6887 183.472 71.3907 183.94C72.3267 184.542 73.3296 183.706 72.9953 182.57C72.427 180.698 70.6553 179.36 70.0535 180.33Z" fill="black"/>
<path d="M62.1643 183.372C62.1643 185.512 63.8692 187.384 64.7383 186.214C65.2064 185.545 64.8052 184.241 63.7689 183.105C62.766 182.068 62.1643 182.169 62.1643 183.372Z" fill="black"/>
<path d="M69.1845 186.448C58.4203 189.055 54.4757 191.161 54.4757 194.303C54.4757 198.683 61.4624 199.151 71.2571 195.407C81.1521 191.663 79.3804 184.007 69.1845 186.448Z" fill="black"/>
<path d="M111.171 210.617C110.469 211.319 110.169 213.592 110.67 214.528C112.074 217.202 114.08 215.464 113.177 212.355C112.609 210.416 111.974 209.848 111.171 210.617Z" fill="black"/>
<path d="M103.148 210.985C102.781 211.954 102.948 213.96 103.483 214.729C104.185 215.732 105.221 215.698 105.488 214.628C106.023 212.455 103.884 209.113 103.148 210.985Z" fill="black"/>
<path d="M100.273 217.169C96.1617 217.771 91.5819 220.612 91.5819 222.551C91.5819 227.565 101.644 229.07 115.551 226.161C130.594 223.019 116.553 214.762 100.273 217.169Z" fill="black"/>
</svg>
