<svg width="159" height="211" viewBox="0 0 159 211" fill="none" xmlns="http://www.w3.org/2000/svg">
<path d="M80.9858 0.555655C76.1051 1.62538 72.0268 4.53371 70.1213 8.24434C68.7507 10.9521 69.8539 13.6933 71.2913 11.0524C73.0296 7.84319 77.342 5.4363 84.8301 3.5977C90.7136 2.16025 91.4825 1.55853 88.4404 0.889945C85.9667 0.35508 82.5569 0.187935 80.9858 0.555655Z" fill="black"/>
<path d="M56.6829 7.24166C51.5014 8.54539 46.8548 13.0583 45.5176 18.0727C44.5816 21.5493 44.849 21.4824 49.2951 17.0029C55.5798 10.7183 60.193 9.28083 64.6725 12.1892C66.4108 13.3258 66.9456 13.2589 66.6113 11.9552C65.7422 8.31139 61.0955 6.1385 56.6829 7.24166Z" fill="black"/>
<path d="M83.6601 9.54815C79.2475 10.8185 74.6343 13.9942 73.832 16.3008C73.364 17.6046 74.0994 17.9723 75.2026 16.936C78.5789 13.7268 81.7881 12.5568 90.8139 11.253C95.8952 10.551 96.0623 10.4842 95.728 9.9493C95.026 8.84614 87.003 8.5787 83.6601 9.54815Z" fill="black"/>
<path d="M139.687 14.8632C137.982 17.2701 136.177 26.3628 137.113 27.8003C138.317 29.6389 139.152 28.7028 140.322 24.1899C141.225 20.7802 141.225 20.7802 141.459 22.4516C141.827 24.8585 142.495 25.9282 143.632 25.9617C143.899 25.9617 145.571 24.4908 147.376 22.719C151.22 18.975 151.421 18.9416 149.783 22.3848C147.911 26.3628 148.412 26.6637 153.694 24.6579C156.101 23.7219 154.831 24.9254 150.017 28.1346C145.638 31.0429 144.3 32.6475 145.504 33.6504C146.707 34.6532 150.351 32.7812 154.329 29.104C160.38 23.5213 159.711 20.7802 152.791 22.8193C152.089 23.0199 152.089 23.0199 152.758 20.8136C154.296 15.7324 151.287 15.5652 146.574 20.4459C144.066 23.0199 144 23.0533 144 21.1813C143.966 15.0972 141.793 11.9215 139.687 14.8632Z" fill="black"/>
<path d="M59.892 17.0698C51.3342 19.7441 44.5481 29.1042 46.4201 35.7232C46.8881 37.4949 47.4899 37.2944 48.3924 35.0546C52.5042 24.8588 59.9255 18.3401 66.6447 19.0421C68.5502 19.2427 68.851 19.1424 68.5502 18.4069C67.9484 16.8358 63.0678 16.0669 59.892 17.0698Z" fill="black"/>
<path d="M84.1616 17.4375C79.3144 18.5406 74.4672 21.9838 74.4672 24.3239C74.4672 25.427 75.002 25.895 75.236 24.9924C76.0718 21.683 85.5656 19.6438 93.3546 21.0812C96.6641 21.683 100.208 21.7833 100.208 21.3153C100.208 18.4404 90.3125 16.0669 84.1616 17.4375Z" fill="black"/>
<path d="M63.1013 24.5242C58.8558 26.5968 55.9809 32.2463 57.5855 35.3218C58.3209 36.7592 58.5549 36.6255 60.2598 33.5166C62.767 28.9034 65.2742 26.2959 67.1462 26.2959C67.8817 26.2959 68.1157 26.1288 68.1157 25.6942C68.1157 24.0562 65.3745 23.421 63.1013 24.5242Z" fill="black"/>
<path d="M127.686 26.4298C126.349 27.9341 125.747 30.8425 125.279 37.8291C124.042 56.9171 121.067 62.8341 111.507 65.4081C108.13 66.3107 105.322 67.6813 103.517 69.3193C100.742 71.8265 100.609 73.9994 103.35 72.1274C105.69 70.4893 108.799 69.1522 111.573 68.5505C123.407 65.943 126.817 59.4243 128.121 36.9934C128.689 27.065 128.756 27.0316 134.272 32.3802C136.779 34.854 139.988 37.7957 141.392 38.9657C143.966 41.1052 143.966 41.1052 141.793 43.4452C137.481 48.1253 136.01 52.7719 136.612 59.9592C137.381 68.9182 134.807 72.2611 123.775 76.6069C116.955 79.2812 114.014 81.0529 112.844 83.1924C111.674 85.2984 113.479 85.2984 116.922 83.2258C118.126 82.4904 121.201 81.0529 123.775 79.9832C137.314 74.434 139.888 71.1914 139.52 60.2266C139.219 51.2676 142.194 42.5761 145.805 41.9409C148.412 41.5063 147.242 39.4337 141.994 35.2217C139.52 33.2494 136.277 30.4413 134.807 29.0039C130.494 24.7918 129.458 24.4241 127.686 26.4298Z" fill="black"/>
<path d="M97.9344 38.7318C98.0347 51.836 97.9009 53.006 95.7949 57.2849C91.3823 66.2439 77.4424 68.5505 68.8177 61.6976C65.6085 59.1235 64.2379 56.8838 58.6552 44.8827C57.2178 41.8073 55.4126 40.771 55.4126 43.0107C55.4126 43.7462 58.7555 53.6412 59.8587 56.1149C68.1825 74.9355 95.1932 73.0634 100.174 53.3069C102.18 45.451 101.678 34.4863 99.0375 28.2016C97.9678 25.6276 97.8675 26.7308 97.9344 38.7318Z" fill="black"/>
<path d="M78.5121 34.2189C76.8072 40.3364 79.1807 44.4147 84.9305 45.1836C87.9725 45.5847 87.8054 47.6908 84.5294 49.964C81.9553 51.7691 81.8885 52.3708 84.1951 52.3708C92.0175 52.3708 92.3518 43.6459 84.6296 41.3727C81.8216 40.537 81.387 40.0355 80.6516 36.7595C79.749 32.748 79.1138 32.0125 78.5121 34.2189Z" fill="black"/>
<path d="M85.4654 35.2886C81.6545 36.4586 82.2562 37.7958 86.6688 37.9295C90.8475 38.0632 91.516 37.896 91.516 36.8263C91.516 35.2552 88.3403 34.4194 85.4654 35.2886Z" fill="black"/>
<path d="M71.0574 38.4643C68.3162 40.5703 68.7842 41.874 71.8263 40.6706C72.7957 40.2694 73.8989 40.0354 74.2666 40.1357C75.2026 40.3697 76.1386 39.768 76.1386 38.8988C76.1386 36.9265 73.3974 36.6925 71.0574 38.4643Z" fill="black"/>
<path d="M134.773 39.4003C135.041 41.1386 136.679 44.5818 137.147 44.3478C137.648 44.0804 137.381 43.0775 136.144 40.4032C134.84 37.662 134.472 37.3611 134.773 39.4003Z" fill="black"/>
<path d="M130.127 42.3087C129.692 43.0442 131.297 48.8608 132.333 50.1646C134.405 52.772 134.506 49.964 132.5 45.7185C130.862 42.2753 130.494 41.7404 130.127 42.3087Z" fill="black"/>
<path d="M129.057 54.9116C129.358 57.7531 130.227 60.3606 131.196 61.2966C133.102 63.2355 133.002 60.6614 131.029 56.0817C129.491 52.5382 128.756 52.1036 129.057 54.9116Z" fill="black"/>
<path d="M127.018 64.8064C127.185 68.2496 128.121 71.9268 128.789 71.9268C129.558 71.9268 129.291 65.0069 128.422 61.9649C127.753 59.6917 126.85 61.4635 127.018 64.8064Z" fill="black"/>
<path d="M122.438 67.0794C122.003 69.1186 123.24 73.0967 124.31 73.0967C124.778 73.0967 124.51 68.4166 123.976 66.9792C123.508 65.7757 122.705 65.8426 122.438 67.0794Z" fill="black"/>
<path d="M116.788 69.3526C116.32 70.1549 118.092 75.771 118.828 75.771C119.195 75.771 118.66 71.9267 118.092 70.4892C117.524 69.1186 117.156 68.7843 116.788 69.3526Z" fill="black"/>
<path d="M109.568 73.8321C109.601 77.8102 111.339 81.9888 112.142 79.9162C112.342 79.4148 111.172 72.5284 110.671 71.1578C110.069 69.6535 109.568 70.9238 109.568 73.8321Z" fill="black"/>
<path d="M89.0088 73.13C87.9056 73.6649 86.535 74.6009 85.9333 75.1692C85.0976 75.9715 84.6964 76.1387 83.9275 75.9715C82.6238 75.6707 79.7823 76.2724 79.2809 76.9075C78.9466 77.409 78.7795 77.409 77.7097 76.941C72.7622 74.9018 66.511 77.409 67.5807 81.0193C69.5865 87.6717 69.8539 87.772 76.64 84.6631C78.5455 83.7939 79.1472 83.6602 79.8826 83.9276C80.5846 84.1616 81.0526 84.1282 81.8884 83.6936C84.5293 82.3565 85.7327 82.089 89.2428 82.0222C94.6917 81.9219 95.6946 80.7853 94.2237 76.3392C92.7194 71.8597 92.1511 71.5254 89.0088 73.13Z" fill="black"/>
<path d="M51.9025 73.9993C38.1297 77.0748 27.3321 87.2706 22.6855 101.645C20.0112 109.936 18.0723 112.61 12.1554 116.254C7.609 119.028 7.64243 119.429 12.6234 123.842C15.5985 126.483 25.2595 133.269 26.0284 133.269C29.4716 133.269 28.1679 131.364 21.6492 126.884C19.1755 125.179 16.1 122.973 14.8297 121.937C12.2222 119.831 12.1554 120.131 15.7657 117.892C20.4792 115.017 23.0867 111.473 25.059 105.255C28.335 94.9259 29.1373 93.3547 33.5165 88.9421C39.6675 82.7243 49.9636 77.3088 56.3486 76.8742C59.2569 76.6736 59.7583 76.4062 59.0229 75.537C57.9197 74.1664 54.4431 73.431 51.9025 73.9993Z" fill="black"/>
<path d="M62.767 80.3509C62.767 86.3013 65.341 109.367 66.8119 116.655C67.915 122.271 68.6839 124.511 69.1185 123.408C69.4194 122.639 69.4194 122.338 68.2828 113.379C67.8148 109.702 67.0793 103.016 66.6113 98.5029C65.7756 90.4465 64.3716 80.8189 63.7698 79.2477C63.235 77.8437 62.767 78.3786 62.767 80.3509Z" fill="black"/>
<path d="M52.872 80.2505C52.404 81.4874 53.8415 88.2735 54.5101 88.0395C55.0449 87.8724 55.0115 82.6574 54.4432 81.0194C54.0086 79.7825 53.2063 79.3814 52.872 80.2505Z" fill="black"/>
<path d="M101.445 82.2229C100.91 83.6604 102.213 118.727 102.882 120.399C104.587 124.678 104.152 93.3548 102.314 82.8581C102.147 81.7549 101.745 81.4541 101.445 82.2229Z" fill="black"/>
<path d="M46.2196 82.7911C45.8853 83.326 46.6876 87.8723 47.2559 88.7081C48.5262 90.6804 48.7936 88.2066 47.7239 84.6631C47.0553 82.5571 46.6541 82.0557 46.2196 82.7911Z" fill="black"/>
<path d="M96.3632 87.1036C95.8952 87.9059 98.1684 114.081 98.9038 116.153C100.208 119.864 100.609 114.248 99.7061 105.49C98.3689 92.5526 97.1321 85.8668 96.3632 87.1036Z" fill="black"/>
<path d="M41.1384 89.1428C41.5061 92.6863 43.3781 96.0292 43.3781 93.0874C43.3447 90.8477 42.2416 87.3376 41.5395 87.1705C41.0047 87.0702 40.9713 87.2708 41.1384 89.1428Z" fill="black"/>
<path d="M89.6439 89.0091C90.4797 96.4972 90.8808 101.244 91.1817 107.529C91.75 119.062 92.2848 123.24 93.2208 123.24C93.9563 123.24 94.1569 121.87 93.856 119.196C93.6889 117.658 93.3211 112.777 93.0203 108.365C92.0843 94.3243 91.1148 87.4045 90.0451 87.2039C89.4768 87.0702 89.4434 87.2374 89.6439 89.0091Z" fill="black"/>
<path d="M83.2256 88.0061C81.7213 89.0424 82.5236 91.2153 84.3956 91.2153C86.0337 91.2153 86.7022 89.3433 85.4988 88.1399C84.6965 87.3376 84.2285 87.3041 83.2256 88.0061Z" fill="black"/>
<path d="M51.4011 90.3795C44.7488 93.689 41.6399 98.3022 40.5367 106.492C39.4001 114.95 37.2272 118.66 30.1403 124.31C27.1651 126.683 27.8671 127.553 31.2434 125.747C38.6981 121.836 41.6733 117.29 43.2444 107.395C44.4813 99.6728 46.4871 96.7644 53.3066 92.7529C58.8893 89.4435 57.2847 87.4043 51.4011 90.3795Z" fill="black"/>
<path d="M107.662 90.3797C106.86 92.3186 107.228 103.116 108.398 111.206C110.337 124.511 108.498 125.614 81.9887 127.118C65.4079 128.021 65.9762 128.489 62.5998 111.707C61.597 106.76 60.6275 101.378 60.427 99.7733C60.2507 98.3635 59.5495 94.0318 58.9227 94.0318C58.2959 94.0318 58.0869 94.6921 58.0535 95.3941C57.8863 97.8678 58.2206 104.754 58.7889 110.203C60.8281 130.762 61.9647 131.665 83.8607 130.093C111.172 128.155 112.81 126.751 111.941 106.025C111.306 91.416 109.701 85.5325 107.662 90.3797Z" fill="black"/>
<path d="M71.6257 90.1123C71.5254 90.3129 71.6591 92.4858 71.9266 94.9261C72.2274 97.333 72.8292 103.116 73.2972 107.696C74.066 115.786 74.7346 119.864 75.5369 122.171C76.5398 124.879 77.1081 121.669 76.5063 116.889C76.3058 115.318 75.7709 110.738 75.2695 106.693C73.9323 95.1601 72.5283 88.7083 71.6257 90.1123Z" fill="black"/>
<path d="M35.2549 92.7195C35.0877 92.9869 36.7592 101.144 37.1938 102.28C37.762 103.651 38.1966 102.548 38.1632 99.8065C38.1632 96.2964 36.0906 91.3155 35.2549 92.7195Z" fill="black"/>
<path d="M78.0775 93.3548C77.9772 93.5219 78.0775 94.926 78.3449 96.4637C78.579 98.0014 79.0804 102.949 79.4815 107.495C80.6181 121.101 81.5541 126.015 82.2896 122.104C83.1253 117.758 79.2141 91.4159 78.0775 93.3548Z" fill="black"/>
<path d="M84.3622 96.798C83.025 98.2689 84.6296 100.642 86.301 99.7732C87.6716 99.0378 87.8722 97.8678 86.8359 96.8315C86.0002 95.9957 85.0976 95.9957 84.3622 96.798Z" fill="black"/>
<path d="M31.4774 101.979C31.1097 102.982 32.6474 112.744 33.3829 113.914C33.9177 114.816 34.1851 113.746 34.1517 110.771C34.0514 106.058 32.2463 100.007 31.4774 101.979Z" fill="black"/>
<path d="M85.6993 105.055C84.663 106.058 85.4319 107.362 86.9028 107.128C87.9056 106.994 88.1731 105.59 87.3039 104.955C86.535 104.387 86.3345 104.42 85.6993 105.055Z" fill="black"/>
<path d="M86.301 111.373C85.8664 113.178 86.3344 121.97 86.9696 123.174C88.6745 126.483 89.1759 121.903 87.8722 114.75C87.1701 110.838 86.7021 109.835 86.301 111.373Z" fill="black"/>
<path d="M23.5213 114.816C23.2538 115.284 24.8584 121.034 25.8279 122.906C27.0648 125.313 27.8336 125.213 27.5662 122.605C27.1316 118.66 24.4239 113.379 23.5213 114.816Z" fill="black"/>
<path d="M6.94041 127.553C1.35776 129.659 -0.0462635 130.695 0.388314 132.433C0.756034 133.904 1.65862 134.105 7.0407 134.004C12.6902 133.904 12.3559 133.503 9.94903 137.481C7.07413 142.128 8.61187 144.067 12.3894 140.623C14.2279 138.952 14.2279 138.952 14.462 140.022C15.0637 142.863 16.6014 143.431 18.2729 141.392C20.78 138.35 22.1506 131.464 19.7103 134.038C19.1755 134.573 16.9691 139.286 16.9691 139.855C16.9691 140.59 16.334 139.621 16.1668 138.618C15.8994 137.013 14.9634 136.345 13.7265 136.913C12.5899 137.448 12.5899 137.448 13.2919 135.843C14.7294 132.701 13.9271 131.865 9.41416 131.664C6.20497 131.531 6.20497 131.531 7.67585 130.662C12.5231 127.854 11.9882 125.647 6.94041 127.553Z" fill="black"/>
<path d="M107.495 131.163C106.125 131.497 106.96 133.804 109.568 136.913C115.05 143.532 115.217 156.368 110.002 169.272C107.896 174.52 107.829 176.76 109.668 181.173C110.337 182.777 110.905 184.148 110.905 184.248C110.905 184.349 109.735 184.415 108.297 184.415C105.657 184.415 99.6727 185.051 95.795 185.753C91.7501 186.488 91.7166 185.552 95.5275 176.225C101.21 162.419 101.846 157.873 98.9373 151.856C98.1684 150.251 96.6559 148.312 96.2798 148.061C95.9037 147.811 94.5231 147.406 96.4636 151.287C98.6364 155.767 97.901 159.845 92.5189 172.348C86.1674 187.257 87.304 190.366 98.4693 188.761C101.344 188.327 105.623 187.959 107.93 187.926C113.011 187.825 113.446 187.725 113.914 186.254C114.348 184.95 114.315 184.85 112.71 180.504C111.206 176.426 111.239 176.158 113.613 171.345C118.727 160.948 119.897 150.151 116.889 141.125C114.749 134.74 110.637 130.394 107.495 131.163Z" fill="black"/>
<path d="M69.0517 133.336C68.9848 133.536 69.2523 135.174 69.6869 136.913C71.6257 144.969 70.6897 149.081 62.5999 167.701C55.6132 183.714 53.8415 190.232 56.1147 191.436C56.7832 191.803 76.7404 191.904 77.643 191.569C78.5456 191.202 78.813 189.931 78.4453 187.892C77.6095 183.346 80.0499 176.927 85.5991 169.105C92.8198 158.909 95.6612 142.997 90.9477 139.286C89.6774 138.317 89.3431 138.852 89.5103 141.559C90.0786 151.053 87.9391 158.475 81.9888 167.367C77.7098 173.818 74.9352 180.437 74.5675 185.151C74.3669 187.424 74.3669 187.424 71.492 187.424C68.8177 187.424 64.4385 187.758 60.1261 188.293C57.2178 188.661 58.2207 184.549 63.469 174.42C74.6344 153.059 76.005 148.546 73.8989 140.155C72.8626 135.943 69.6534 131.464 69.0517 133.336Z" fill="black"/>
<path d="M106.526 189.664C105.723 190.6 105.89 194.612 106.76 195.447C107.896 196.584 108.732 195.046 108.431 192.372C108.13 189.397 107.495 188.494 106.526 189.664Z" fill="black"/>
<path d="M98.5027 191.569C97.667 193.374 99.0041 197.118 100.308 196.617C101.01 196.316 101.077 194.611 100.408 192.438C99.9067 190.7 99.071 190.299 98.5027 191.569Z" fill="black"/>
<path d="M69.7871 193.642C69.3191 194.812 69.3525 195.314 69.9543 196.45C71.1577 198.79 72.3946 196.584 71.4251 193.809C70.9906 192.539 70.2217 192.472 69.7871 193.642Z" fill="black"/>
<path d="M61.2961 193.375C60.3266 194.979 60.9952 199.225 62.1987 199.057C62.8672 198.957 62.9341 198.79 62.8672 196.918C62.767 194.043 61.9647 192.305 61.2961 193.375Z" fill="black"/>
<path d="M110.738 196.985C110.37 197.085 107.896 197.52 105.222 198.021C98.135 199.291 96.6307 201.063 99.539 204.74C102.982 209.053 111.874 209.621 121.001 206.144C129.458 202.935 120.532 194.979 110.738 196.985Z" fill="black"/>
<path d="M77.6429 198.155C76.5398 198.322 73.832 198.89 71.6257 199.425C66.7785 200.629 63.0596 201.214 61.806 201.59C60.5524 201.966 58.7555 203.169 58.7555 204.507C58.7555 210.022 76.9075 212.296 83.727 207.615C90.6134 202.869 86.7022 196.751 77.6429 198.155Z" fill="black"/>
</svg>
