<svg width="126" height="249" viewBox="0 0 126 249" fill="none" xmlns="http://www.w3.org/2000/svg">
<path d="M45.7142 0.902637C42.8728 2.84152 41.7362 7.35445 43.7754 8.65818C44.5777 9.15962 45.614 8.12332 45.8814 6.48529C46.55 2.64095 50.2272 2.17294 50.2272 5.98386C50.2272 8.45761 50.996 8.75847 52.6675 6.91987C53.3695 6.151 54.2052 5.51585 54.5061 5.51585C57.1136 5.51585 57.0133 11.2322 54.4058 12.1348C53.7372 12.4022 53.4029 12.7365 53.4029 13.1711C53.4029 13.94 53.6035 14.0068 55.4755 13.9065C58.2501 13.7394 60.3227 17.3497 58.8184 19.7566C56.6121 23.2667 50.8957 23.1664 50.5949 19.5895C50.3943 17.1492 49.0906 16.8149 47.9874 18.8875C46.8508 20.9601 44.8785 21.5284 42.7056 20.3918C39.6636 18.8206 41.0676 13.1042 44.3436 13.7394C45.5471 14.0068 45.6474 13.6391 44.6779 12.4022C41.7028 8.62475 36.2204 16.0126 38.6607 20.5589C40.165 23.4338 45.2462 24.771 47.72 22.9658C48.7563 22.1635 48.7563 22.1635 49.5586 23.0327C53.0018 26.7433 61.4259 22.9658 61.4259 17.7175C61.4259 15.578 59.019 12.2017 57.5147 12.2017C57.147 12.2017 57.0467 12.0011 57.2138 11.4328C58.7516 6.25129 57.7487 3.47668 54.3055 3.37639C52.9015 3.34296 52.6675 3.20924 52.0992 2.30666C50.7286 0.0334812 47.8871 -0.568242 45.7142 0.902637Z" fill="black"/>
<path d="M19.5058 1.83867C17.1992 2.57411 15.2937 4.57986 15.2937 6.31817C15.2937 6.98675 15.0932 7.22075 14.3912 7.3879C8.70822 8.75849 5.90018 15.3774 9.94509 17.7843C10.7474 18.2523 10.8477 18.4529 10.5802 19.1215C9.17622 22.8321 12.8869 26.4759 16.4638 24.8379C17.8009 24.2362 17.4666 23.6344 15.4609 23.2333C12.6863 22.665 10.9814 18.5532 13.4886 18.5532C14.1906 18.5532 15.2937 17.2829 15.0932 16.7146C14.8592 16.1463 12.9537 16.0126 12.4188 16.5475C11.8505 17.1158 10.2794 15.6783 10.2794 14.5752C10.2794 11.8674 16.2632 8.25706 17.4666 10.1959C17.5669 10.3631 18.1018 10.5302 18.6367 10.5302C20.0407 10.5302 20.3081 9.39365 19.1715 8.22363C16.4972 5.44902 21.8458 3.20927 24.7207 5.91702C25.7236 6.85304 25.757 6.91989 25.523 9.25993C25.2556 12.2351 25.523 12.6363 27.6625 12.3354C31.4734 11.834 31.8411 16.2466 28.1639 18.4195C25.8573 19.7567 26.3922 21.1272 29.0999 20.8264C35.3846 20.1244 35.9863 9.19307 29.7351 9.19307C28.7991 9.19307 28.7322 9.09278 28.5651 7.48819C28.0636 3.2427 23.6844 0.501512 19.5058 1.83867Z" fill="black"/>
<path d="M48.5891 12.5692C48.0208 13.405 48.188 14.0735 49.0906 14.575C49.9597 15.043 51.0629 14.4078 51.0629 13.4384C51.0629 11.8672 49.4583 11.3323 48.5891 12.5692Z" fill="black"/>
<path d="M19.5058 13.94C18.1686 15.8454 20.2078 17.45 21.9127 15.8788C22.7819 15.0431 22.8487 14.4414 22.1133 13.7394C21.3778 12.9705 20.1075 13.0708 19.5058 13.94Z" fill="black"/>
<path d="M20.843 22.1968C20.7093 22.3639 20.4753 24.4365 20.3082 26.81C19.8736 32.0918 19.2719 34.9667 17.6004 40.1482C15.1935 47.6363 16.8315 49.5752 22.3808 45.7643C29.6014 40.8168 36.7218 39.0116 40.867 41.0173C43.4745 42.2877 44.3437 40.6162 42.0036 38.8445C39.6636 37.1396 33.9806 37.4404 28.398 39.6133C25.9242 40.5828 25.9242 40.5828 32.0752 34.599C39.229 27.6791 40.633 25.4728 38.3599 24.7374C36.7887 24.236 29.6683 31.2561 21.1773 41.6191C20.609 42.3211 20.3416 42.5217 20.4753 42.1205C22.1133 37.2064 22.9825 32.9275 22.9825 29.4175C22.9825 24.5034 21.8125 20.5922 20.843 22.1968Z" fill="black"/>
<path d="M45.2128 29.752C41.6693 31.624 42.6053 36.2707 46.5166 36.2707C48.5223 36.2707 48.6226 35.9029 47.0514 34.6326C45.0122 32.9946 45.38 32.0586 48.2549 31.7243C50.6952 31.4234 52.7009 32.0586 53.1355 33.262C53.5367 34.4321 54.6732 34.9335 55.2415 34.1312C56.0438 33.0615 58.0162 34.0309 59.3199 36.1704C60.3228 37.8418 60.3562 38.945 59.3199 38.945C56.6121 38.945 56.1776 41.987 58.8519 42.3213C60.5568 42.4885 61.1585 43.0233 61.0248 44.1265C60.8242 45.6308 57.1136 46.0319 54.6732 44.7616C53.5032 44.1599 52.7344 44.5611 52.7344 45.8314C52.7344 48.372 47.7869 48.2048 46.7171 45.5974C46.2491 44.5276 46.784 43.3242 48.5892 41.0844C50.3943 38.8781 49.9263 38.0424 47.6197 39.3796C43.3742 41.8867 42.0371 45.6308 44.2768 48.606C46.9177 52.0826 53.5032 51.5812 54.7401 47.8371C55.0744 46.734 55.1413 46.7005 56.1776 47.0014C60.3228 48.1714 64.1002 46.5334 64.1002 43.4913C64.1002 42.1542 63.0974 39.9479 62.4622 39.9479C62.2951 39.9479 62.1279 38.945 62.0276 37.6747C61.8271 33.9306 59.0525 30.922 55.7764 30.922C55.1413 30.922 54.1049 30.5877 53.4698 30.1866C51.8652 29.1837 46.7506 28.9163 45.2128 29.752Z" fill="black"/>
<path d="M52.0658 38.9448C51.23 39.7805 51.23 40.0145 52.0658 40.7834C53.0352 41.6525 54.5061 40.984 54.3389 39.7136C54.2052 38.5102 52.9349 38.0756 52.0658 38.9448Z" fill="black"/>
<path d="M5.73307 43.0566C2.39016 45.0289 -0.718745 49.8761 0.250698 51.6144C0.718705 52.517 1.18671 52.517 1.55443 51.5475C2.92502 48.0709 3.42646 47.3689 7.07023 44.3603C8.54111 43.1234 7.43795 42.0537 5.73307 43.0566Z" fill="black"/>
<path d="M11.0484 43.1904C10.2461 43.4913 10.6138 44.2936 11.9175 45.0959C14.0904 46.4665 13.823 47.6365 11.3158 47.6365C9.34349 47.6365 8.54119 49.0739 9.97864 50.0768C10.8478 50.712 10.5469 50.8791 8.03976 51.18C5.23172 51.4808 4.32913 52.35 5.69972 53.4531C6.9366 54.456 5.93373 55.7263 4.39599 55.0577C3.09226 54.456 2.59082 54.5563 2.59082 55.4589C2.59082 58.2669 7.7389 57.3978 8.47434 54.456C8.60805 53.9546 9.07606 53.5534 9.87836 53.286C11.6167 52.7177 12.9204 51.7483 13.1544 50.8122C13.2547 50.3777 13.6558 49.9097 14.0236 49.7759C15.8287 49.2076 16.397 46.5333 15.0599 44.9287C13.8564 43.5247 12.0847 42.7558 11.0484 43.1904Z" fill="black"/>
<path d="M19.3721 51.715C21.7122 53.9213 22.6816 56.2613 24.8211 64.9863C26.76 72.7753 28.9663 77.0542 31.1057 77.0542C31.674 77.0542 31.1057 74.1793 29.9023 71.037C29.2337 69.2987 28.0637 65.7552 27.3283 63.1811C24.6874 54.1553 22.1467 50.3109 18.8038 50.3109C17.9013 50.3109 17.9013 50.3444 19.3721 51.715Z" fill="black"/>
<path d="M49.5586 54.1216C39.5967 56.4282 36.2872 60.9411 33.6798 75.7167C32.1086 84.542 31.1392 88.1189 27.1945 99.2174C23.9185 108.477 25.3894 111.62 31.2394 107.842C33.2786 106.538 33.2786 106.538 33.4792 107.976C33.9806 111.118 36.4878 111.82 39.697 109.647C41.7696 108.243 41.7027 108.277 41.7027 109.346C41.7027 112.756 46.0485 112.79 47.6865 109.346C49.2243 106.204 47.9205 104.767 45.8479 107.307C44.3436 109.146 44.1765 109.179 43.9091 107.407C43.4745 104.7 42.6722 104.533 39.3961 106.471C38.1593 107.207 37.0227 107.809 36.8555 107.809C36.5881 107.809 36.8221 104.599 37.2232 103.229C37.4238 102.46 36.3875 101.123 35.5518 101.123C35.2844 101.123 34.1143 101.858 32.9443 102.727C28.3645 106.237 28.4648 106.739 31.6072 97.6796C33.8135 91.3615 35.4181 84.7426 36.5547 77.3882C38.5938 64.0166 40.5661 60.5065 47.5528 57.9659C52.9015 55.9936 64.4345 57.6985 69.5157 61.2085C71.7889 62.7797 72.2235 61.1417 70.1174 58.8685C66.6408 55.091 55.977 52.6507 49.5586 54.1216Z" fill="black"/>
<path d="M8.74168 56.4618C6.60221 57.3978 2.95845 64.3511 4.6299 64.3511C5.13134 64.3511 10.8811 58.3673 11.1486 57.565C11.5831 56.2278 10.4466 55.7264 8.74168 56.4618Z" fill="black"/>
<path d="M12.82 57.5648C12.7198 57.6985 13.5555 58.7014 14.6921 59.8379C17.3998 62.4454 19.2719 65.9889 20.6425 71.0367C22.5479 77.9899 25.5231 84.074 26.76 83.6394C27.462 83.4054 27.0274 81.1323 25.5231 77.6222C24.7208 75.7502 23.5842 72.6413 22.9825 70.7024C20.8096 63.6489 14.6586 55.7262 12.82 57.5648Z" fill="black"/>
<path d="M51.765 64.5181C46.9846 66.6241 41.8031 73.5439 40.5328 79.5612C36.1202 100.688 67.1089 113.091 78.7422 94.8717C85.0937 84.9098 78.9428 68.9307 67.8778 66.5238C65.8386 66.0892 66.574 67.393 70.9532 72.0062C81.1491 82.8038 80.6477 93.7351 69.6829 99.1172C60.6237 103.563 46.7172 95.9414 45.0457 85.6452C43.8757 78.224 50.0266 66.8247 55.743 65.8552C57.2808 65.5878 57.5148 64.8524 56.211 64.3509C55.0076 63.8829 53.1021 63.9498 51.765 64.5181Z" fill="black"/>
<path d="M82.0851 66.5238C81.9848 66.6241 82.8874 68.5964 84.0574 70.903C90.3755 83.138 90.8101 91.5621 85.7957 105.836C83.6897 111.887 82.8206 115.464 82.8206 118.105C82.7871 121.782 79.5111 120.445 77.171 115.865C75.4996 112.589 72.4575 112.923 72.4575 116.367C72.4575 117.603 72.4575 117.603 69.6495 114.896C65.4374 110.851 64.468 110.684 65.404 114.127C66.7746 119.308 76.1347 125.727 76.1347 121.515C76.1347 120.645 76.2016 120.645 78.0736 122.016C82.9208 125.493 85.3946 124.089 86.1635 117.336C86.4643 114.762 87.066 112.422 88.8378 107.14C93.6181 92.9662 93.685 84.4083 89.0384 74.9145C86.6983 70.1341 82.9877 65.6546 82.0851 66.5238Z" fill="black"/>
<path d="M50.6618 75.2491C49.7927 75.7171 49.3915 76.8202 49.9932 77.1879C51.7315 78.2577 58.4174 78.4248 58.4174 77.3885C58.4174 75.1822 53.3361 73.7782 50.6618 75.2491Z" fill="black"/>
<path d="M61.4928 75.4494C61.2922 75.6834 60.6236 77.0205 60.0219 78.3911C58.6513 81.3329 58.4842 81.5335 56.1776 82.0683C49.7258 83.5726 51.7315 92.7656 58.5176 92.7656C61.1585 92.7656 60.7239 91.5622 57.381 89.3893C54.7067 87.6844 54.4058 85.4112 56.8796 85.4112C60.3562 85.3778 62.0945 83.0712 62.3619 78.1237C62.5291 75.1151 62.3285 74.4799 61.4928 75.4494Z" fill="black"/>
<path d="M65.2034 79.2938C64.3342 79.6281 64.8357 80.3635 67.0754 82.2021C69.9169 84.4753 71.1203 84.5756 71.1203 82.5698C71.1203 80.9987 66.8748 78.6586 65.2034 79.2938Z" fill="black"/>
<path d="M108.126 87.8181C99.3678 97.0111 92.214 107.474 94.6543 107.474C94.8883 107.474 97.7298 104.466 100.906 100.755C104.115 97.0446 107.123 93.5679 107.625 92.9662C108.527 91.9299 108.527 91.9299 107.859 93.7351C106.321 97.8803 107.658 98.8163 111.67 96.3426C118.188 92.2976 119.225 92.1305 116.584 95.5068C114.411 98.248 114.344 98.482 115.046 99.0837C115.414 99.418 115.882 99.3177 117.152 98.6826C119.191 97.6463 122.133 96.6768 122.668 96.844C123.537 97.1448 120.294 98.7829 116.249 100.12C108.862 102.56 104.449 106.037 98.1978 114.327C96.3926 116.701 92.8826 121.214 90.3754 124.356C82.7536 133.917 81.2158 138.363 88.6037 129.538C105.285 109.58 108.193 106.873 117.252 102.794C126.178 98.7494 128.719 93.2671 120.428 95.908C117.888 96.7103 117.888 96.7103 118.69 95.674C123.336 89.5564 121.13 88.7542 112.773 93.4342C111.202 94.3034 109.898 94.9385 109.898 94.8382C109.898 94.7045 110.6 92.8325 111.469 90.6596C113.174 86.3473 113.174 85.6787 111.402 85.4781C110.6 85.3778 110.099 85.7455 108.126 87.8181Z" fill="black"/>
<path d="M39.8976 116.233C39.4296 116.968 36.8221 122.718 32.8441 131.744C28.2309 142.174 26.9271 149.428 27.6626 160.225C28.7657 176.138 28.5652 180.383 26.1583 189.91C24.5202 196.295 24.2528 199.638 25.1554 201.377C27.7629 206.458 36.1536 204.753 40.3991 198.301C41.6694 196.362 41.6694 196.362 43.04 198.535C47.6532 205.856 55.6761 206.826 57.8156 200.34C57.8825 200.14 58.8853 200.675 60.0553 201.51C66.7412 206.458 73.2264 204.252 73.9953 196.763C74.2293 194.825 74.2293 194.825 76.6027 196.63C87.9352 205.154 92.7824 201.51 87.9686 188.105C79.4108 164.27 75.9676 150.999 75.4662 140.235C74.9981 129.838 74.7307 129.203 72.5244 132.881C69.0478 138.664 69.6829 146.085 75.3324 165.541C77.8396 174.299 80.4471 181.854 83.088 188.206C85.6286 194.323 86.2972 196.73 85.4949 196.73C84.0574 196.73 78.5751 192.819 75.0984 189.309C73.193 187.403 72.6581 187.036 71.6887 187.036C69.5492 187.036 69.0478 188.272 69.4823 192.418C70.3515 200.909 66.2063 202.781 60.3228 196.563C57.7153 193.855 56.6122 193.955 54.7401 197.064C52.1661 201.31 51.1966 201.21 45.8146 195.995C41.8365 192.15 40.9674 192.05 38.6942 195.359C36.3207 198.869 33.613 200.541 30.6378 200.34C28.5652 200.207 28.5317 198.836 30.3035 191.415C32.6435 181.587 32.9109 177.04 31.8746 164.538C30.6043 149.461 31.3064 144.547 36.6884 130.139C40.9339 118.874 42.4382 112.322 39.8976 116.233Z" fill="black"/>
<path d="M52.0659 119.676C51.3973 120.478 51.9656 121.515 53.0687 121.515C53.7373 121.515 54.105 121.314 54.2387 120.846C54.5062 120.01 53.9045 119.175 53.0687 119.175C52.7344 119.175 52.2999 119.409 52.0659 119.676Z" fill="black"/>
<path d="M61.6933 124.222C60.2225 125.058 61.593 127.331 63.0974 126.529C63.9665 126.061 63.9665 124.657 63.1308 124.189C62.3619 123.788 62.3953 123.788 61.6933 124.222Z" fill="black"/>
<path d="M43.0734 125.292C42.4716 126.061 43.0065 126.93 44.0094 126.797C44.678 126.73 44.8785 126.529 44.8785 125.861C44.8785 124.891 43.7419 124.523 43.0734 125.292Z" fill="black"/>
<path d="M62.1613 137.628C61.0582 138.731 62.3619 140.67 63.7325 139.934C64.2339 139.633 64.7688 138.864 64.7688 138.396C64.7688 137.527 62.8299 136.959 62.1613 137.628Z" fill="black"/>
<path d="M44.2434 138.296C43.5414 139.299 43.5748 140.101 44.3771 140.904C45.6808 142.207 48.0543 141.271 48.0543 139.466C48.0543 137.661 45.2463 136.825 44.2434 138.296Z" fill="black"/>
<path d="M36.5213 153.74C35.7858 154.275 36.0198 155.412 36.889 155.546C37.7247 155.679 38.4602 154.91 38.1593 154.175C37.8919 153.439 37.1899 153.239 36.5213 153.74Z" fill="black"/>
<path d="M61.0916 153.907C60.6236 154.843 61.7936 156.281 62.6293 155.746C63.6322 155.144 63.933 154.409 63.465 153.807C62.8633 153.072 61.5261 153.138 61.0916 153.907Z" fill="black"/>
<path d="M49.0905 157.584C48.6225 158.42 48.9234 159.189 49.7591 159.456C50.6617 159.757 51.464 159.022 51.3303 157.986C51.1965 156.849 49.6254 156.548 49.0905 157.584Z" fill="black"/>
<path d="M60.9245 168.416C60.2893 169.419 60.5567 170.254 61.6933 170.555C62.9302 170.856 63.9999 169.552 63.3314 168.516C62.6293 167.48 61.5596 167.446 60.9245 168.416Z" fill="black"/>
<path d="M72.5244 168.182C71.7221 168.75 71.5549 169.953 72.1901 170.589C72.8252 171.224 74.0287 171.057 74.597 170.254C75.7335 168.65 74.129 167.045 72.5244 168.182Z" fill="black"/>
<path d="M39.0953 177.742C38.1927 178.645 38.8613 180.35 40.0647 180.35C40.7667 180.35 41.7027 179.48 41.7027 178.845C41.7027 177.675 39.931 176.906 39.0953 177.742Z" fill="black"/>
<path d="M70.9198 179.514C70.7861 179.815 70.8529 180.216 71.0535 180.417C71.5884 180.952 72.6247 180.584 72.6247 179.848C72.6247 178.979 71.2206 178.712 70.9198 179.514Z" fill="black"/>
<path d="M57.615 185.431C56.679 186.735 57.3476 188.039 58.9187 188.039C60.423 188.039 61.1251 186.401 60.0888 185.364C59.2196 184.495 58.2502 184.529 57.615 185.431Z" fill="black"/>
<path d="M36.5881 188.406C35.3512 189.108 36.3207 190.98 37.6913 190.546C38.1258 190.412 38.3598 190.044 38.3598 189.543C38.3598 188.573 37.4238 187.972 36.5881 188.406Z" fill="black"/>
<path d="M30.3703 207.06C27.8966 211.673 34.4821 227.218 38.3599 225.981C39.3962 225.646 39.1956 225.112 36.8221 221.568C33.4458 216.587 32.5098 214.147 31.5069 208.029C31.2729 206.525 30.8383 206.157 30.3703 207.06Z" fill="black"/>
<path d="M41.3684 210.536C41.3684 218.359 43.0733 223.139 45.9148 223.139C46.9845 223.139 46.9511 222.471 45.7142 219.863C44.5107 217.289 43.6082 214.448 42.8727 210.77C41.803 205.355 41.3684 205.288 41.3684 210.536Z" fill="black"/>
<path d="M57.147 207.327C53.2358 214.949 62.8299 234.171 70.5186 234.171C71.6552 234.171 70.1174 231.764 66.9417 228.588C62.3285 223.975 59.0858 216.62 58.2167 208.831C57.9827 206.725 57.6818 206.291 57.147 207.327Z" fill="black"/>
<path d="M67.1088 208.765C67.0754 219.462 72.1566 232.833 76.3018 232.833C77.8061 232.833 77.8061 232.833 75.4995 229.223C73.0258 225.379 71.8892 222.537 69.6494 214.715C67.5768 207.561 67.1422 206.491 67.1088 208.765Z" fill="black"/>
<path d="M30.3369 226.515C18.1353 232.031 28.4983 243.464 41.1679 238.483C42.0705 238.115 42.806 237.881 42.8394 237.915C42.8728 237.982 43.2071 238.75 43.5414 239.653C44.444 241.859 45.5137 242.628 47.0515 242.227C47.6866 242.026 48.8566 241.726 49.6255 241.525C51.6647 240.99 51.7984 240.589 51.1967 235.842C50.0935 226.816 47.9875 224.643 42.8728 227.151C40.3991 228.387 40.3656 228.387 37.3905 226.983C34.549 225.613 32.6101 225.479 30.3369 226.515Z" fill="black"/>
<path d="M62.1278 235.24C58.8852 236.979 57.5815 240.422 59.2864 242.762C63.0638 247.943 75.0983 249.581 78.4412 245.336C79.0429 244.567 79.0429 244.567 80.7812 246.573C83.255 249.381 84.9599 249.247 88.5034 246.071C91.7126 243.23 83.5224 235.474 78.5081 236.611C77.3046 236.912 75.8672 237.213 75.2989 237.346C73.828 237.614 70.4517 236.611 69.3485 235.575C67.9779 234.271 64.2673 234.104 62.1278 235.24Z" fill="black"/>
</svg>
