<svg width="147" height="225" viewBox="0 0 147 225" fill="none" xmlns="http://www.w3.org/2000/svg">
<path d="M43.3794 0.30073C34.4204 3.17563 29.0383 11.2655 32.0804 17.3161C36.025 25.2054 43.7471 23.8348 46.4214 14.7755C46.7557 13.7726 47.0232 13.3715 47.4912 13.3715C50.8675 13.3715 52.2381 8.39056 50.0652 4.04479C48.494 0.902453 45.9534 -0.501567 43.3794 0.30073Z" fill="black"/>
<path d="M130.495 7.55484C123.241 10.296 122.773 24.47 129.66 33.1949C131.565 35.6353 131.365 33.3287 129.192 27.7794C124.311 15.5444 127.086 6.78598 135.142 8.82515C137.114 9.32658 135.209 11.1318 132.334 11.5663C128.222 12.1681 127.186 14.8424 131.097 14.7755C136.112 14.6752 139.956 10.7306 137.716 7.98942C136.914 6.98655 132.668 6.71912 130.495 7.55484Z" fill="black"/>
<path d="M69.8552 10.6304C69.454 11.3658 69.7215 11.8004 70.8246 12.3687C72.5295 13.2378 74.3013 14.8758 75.371 16.5807C77.0759 19.2551 78.8476 19.3553 78.8476 16.7479C78.8476 13.4384 71.1589 8.22346 69.8552 10.6304Z" fill="black"/>
<path d="M60.6287 11.0983C57.8541 12.6026 58.7232 15.1432 62.5341 16.5472C63.8713 17.0486 65.7433 17.9178 66.6793 18.4192C67.6822 18.9875 68.8857 19.3887 69.6211 19.3887C70.9248 19.3887 70.9583 19.3218 70.5237 18.4527C70.3565 18.1518 69.8885 17.0821 69.454 16.0792C67.8159 12.3351 63.1693 9.69424 60.6287 11.0983Z" fill="black"/>
<path d="M138.017 13.5387C138.051 20.8597 139.321 29.5847 140.391 29.919C142.363 30.5541 142.463 28.4815 140.859 21.7957C139.187 14.9093 138.017 11.4327 138.017 13.5387Z" fill="black"/>
<path d="M53.2743 16.5473C50.0316 18.2187 51.1014 19.5559 56.1157 20.0573C58.2886 20.2913 59.4921 20.6256 61.3307 21.5616C64.1721 22.9322 64.6067 22.9991 64.3058 21.9628C63.069 17.8176 56.8177 14.7421 53.2743 16.5473Z" fill="black"/>
<path d="M132.1 19.8569C129.593 20.9934 129.392 23.5341 131.766 24.3029C133.972 25.0384 137.883 23.8015 137.616 22.4643C137.482 21.8292 136.981 21.8292 134.273 22.4309C131.498 23.0661 131.264 21.9295 133.939 20.8263C134.54 20.5589 135.008 20.1912 134.908 19.9571C134.741 19.3889 133.337 19.322 132.1 19.8569Z" fill="black"/>
<path d="M47.9925 22.2971C46.9896 23.3 48.4271 25.5397 51.302 27.4118C57.152 31.2227 59.7929 30.8215 55.8817 26.7097C52.706 23.3668 48.9954 21.2942 47.9925 22.2971Z" fill="black"/>
<path d="M130.328 26.8435C130.328 28.2475 131.966 31.557 132.769 31.6907C133.671 31.8579 133.504 30.2533 132.334 27.8129C131.231 25.4729 130.328 25.0383 130.328 26.8435Z" fill="black"/>
<path d="M75.9727 26.5427C74.7692 27.0775 72.8303 29.3173 72.8303 30.153C72.8303 31.0556 73.9001 30.8884 75.3375 29.7519C76.0395 29.1836 76.9755 28.749 77.4101 28.749C78.5467 28.749 79.5161 28.1473 79.5161 27.4787C79.5161 26.1081 77.945 25.7069 75.9727 26.5427Z" fill="black"/>
<path d="M136.479 26.9104C136.078 28.515 137.048 30.1865 138.05 29.5513C138.385 29.3507 138.452 27.4119 138.151 26.6096C137.816 25.7738 136.713 25.9744 136.479 26.9104Z" fill="black"/>
<path d="M87.8734 28.8157C87.8734 29.4175 88.4751 31.6572 89.244 33.7632C92.4532 42.9562 92.3195 46.1988 88.542 49.6086C82.625 54.9573 70.7243 55.2916 61.0633 50.4443C57.8207 48.8063 57.5198 49.408 60.2275 52.0489C74.7358 66.2229 100.376 56.8961 95.7292 39.1119C94.2918 33.5961 87.8734 25.2054 87.8734 28.8157Z" fill="black"/>
<path d="M45.2847 28.8158C42.8444 32.2924 48.9284 38.0756 54.7117 37.8082C55.9151 37.7413 55.5808 36.939 53.8425 35.6687C52.9734 35.067 50.9008 33.0947 49.2627 31.3229C45.9198 27.746 45.9867 27.7795 45.2847 28.8158Z" fill="black"/>
<path d="M69.0193 28.6153C67.6822 32.0919 71.2257 36.7719 75.1703 36.7719C76.4406 36.7719 77.176 37.7748 77.176 39.4797C77.176 41.452 77.7777 41.8866 79.1149 40.8837C82.2907 38.5103 80.0509 34.0642 75.1034 32.961C72.3288 32.3259 71.2591 31.4902 70.2562 29.1501C69.7548 27.9801 69.3536 27.7795 69.0193 28.6153Z" fill="black"/>
<path d="M30.7766 29.7517C29.9409 30.1194 28.7375 32.426 28.704 33.7632C28.6706 34.5655 28.6372 34.5655 27.6677 33.3286C25.9628 31.256 24.6925 31.724 24.0908 34.6323C23.8568 35.8692 23.8568 35.8692 22.9208 34.4986C19.4776 29.2502 16.5358 33.7632 18.8759 40.7164C23.1548 53.5866 44.048 75.3489 51.5695 74.8141C53.5418 74.6803 53.3413 74.0118 50.7672 72.1397C35.7241 61.1416 21.7174 44.661 20.8148 36.8721C20.6476 35.2675 20.6476 35.2675 21.7508 37.2732C24.6257 42.4881 26.5311 43.0564 26.7651 38.8109C26.8654 37.0058 26.8654 37.0058 27.7012 38.3095C29.4729 41.0507 30.8101 40.215 31.1778 36.1032C31.2781 34.7326 31.5455 33.128 31.7126 32.5931C32.0469 31.5568 31.9467 33.9637 31.4452 38.1089C30.3421 47.0011 37.7633 57.5647 48.8952 63.0136C53.8761 65.4539 55.8484 63.3479 51.2687 60.473C50.1655 59.771 47.9926 58.4004 46.4214 57.4309C38.1979 52.2494 34.3201 45.6973 34.2198 36.7718C34.153 31.3228 33.3172 28.9159 31.6124 29.4508C31.5789 29.4508 31.2112 29.5845 30.7766 29.7517Z" fill="black"/>
<path d="M64.8074 31.6573C63.0357 32.2924 61.4311 35.1339 62.1331 36.4376C62.6345 37.3402 63.3699 37.2733 64.4062 36.1702C64.9077 35.6687 65.8771 34.833 66.5791 34.3316C68.8189 32.6267 67.5486 30.6544 64.8074 31.6573Z" fill="black"/>
<path d="M135.644 34.3984C134.273 35.8024 134.54 38.9782 136.078 39.5465C136.412 39.6802 136.446 39.7805 136.112 40.1482C135.476 40.7833 135.577 42.6888 136.212 43.0565C136.713 43.3239 136.713 43.4242 136.045 44.0928C133.805 46.3326 138.819 48.94 141.393 46.834C142.496 45.9314 141.962 45.5303 139.521 45.3965C137.516 45.2963 137.516 45.2963 139.287 44.494C141.761 43.3908 141.661 42.4214 139.02 41.9868C137.048 41.6859 137.048 41.6525 139.755 39.747C140.691 39.0784 140.123 38.109 138.719 38.109C136.245 38.0756 136.279 35.6687 138.786 35.5015C140.558 35.4013 140.858 34.833 139.622 33.9638C138.418 33.0946 136.78 33.2952 135.644 34.3984Z" fill="black"/>
<path d="M142.697 35.0669C142.697 35.6018 142.931 36.6715 143.232 37.4738C143.6 38.4099 143.8 40.0813 143.834 42.1205C143.867 45.6305 144.201 46.0985 145.505 44.3602C147.277 41.9868 145.739 34.0975 143.499 34.0975C142.831 34.0975 142.697 34.2646 142.697 35.0669Z" fill="black"/>
<path d="M44.7499 38.2761C44.7499 42.5215 56.4501 48.6391 58.1215 45.2962C58.2887 44.9619 57.8875 44.7613 53.7423 42.8224C52.5389 42.2541 50.6668 41.0172 49.5971 40.0812C46.6553 37.5072 44.7499 36.8052 44.7499 38.2761Z" fill="black"/>
<path d="M123.776 41.8531C121.971 43.558 118.795 46.5666 116.756 48.5055C112.945 52.1827 109.201 55.091 103.418 58.9353C97.969 62.5123 95.7626 64.8523 97.8352 64.8523C99.2393 64.8523 111.14 57.3976 114.75 54.2219C118.795 50.6784 128.657 40.6496 128.657 40.0814C128.657 39.5799 127.788 38.7776 127.219 38.7776C127.153 38.7776 125.615 40.1816 123.776 41.8531Z" fill="black"/>
<path d="M46.4214 44.9618C43.7805 48.1376 48.1597 54.1882 52.5389 53.3525C56.7509 52.5502 56.3498 48.7393 52.1043 49.3076C49.8311 49.6085 48.6277 48.5053 47.9591 45.363C47.7251 44.3601 47.0565 44.1929 46.4214 44.9618Z" fill="black"/>
<path d="M129.058 49.3079C128.456 49.5753 126.417 50.9793 124.545 52.4168C122.673 53.8542 119.397 56.2277 117.291 57.6651C102.315 67.861 98.6042 70.8696 101.011 70.8696C103.184 70.8696 121.57 59.3032 127.052 54.4894C131.264 50.7788 132.401 47.8704 129.058 49.3079Z" fill="black"/>
<path d="M136.68 53.8875C136.646 56.9964 136.646 56.9964 134.942 58.1664C130.362 61.2753 130.83 65.1865 135.61 63.6822C145.104 60.707 150.687 54.3889 142.597 55.7929C141.427 55.9935 140.391 56.1607 140.29 56.1607C140.19 56.1607 139.923 55.5255 139.689 54.7232C138.218 49.7423 136.68 49.3411 136.68 53.8875Z" fill="black"/>
<path d="M84.9316 62.2113C84.6976 62.5791 83.9622 64.3842 83.327 66.2228C81.923 70.2343 80.5524 73.2095 79.9841 73.4435C78.7138 73.9115 75.9058 71.2706 74.2677 68.028C72.7634 65.0528 72.3288 64.7185 71.326 65.7548C69.922 67.1588 71.7271 72.5075 74.4015 74.881C79.5161 79.3605 83.6613 76.9201 86.3356 67.8274C87.5056 63.8828 86.4693 59.7376 84.9316 62.2113Z" fill="black"/>
<path d="M60.2276 63.916C60.0271 64.15 59.793 65.9218 59.7262 67.8607C59.6259 70.2676 59.4253 71.705 59.0242 72.4405C56.517 77.1874 55.7481 86.6144 57.5199 91.5953C59.8933 98.3146 63.0022 104.733 63.4702 103.964C64.3728 102.56 63.604 99.2506 60.7959 92.431C58.7567 87.517 58.9908 81.8675 61.3976 75.5494C63.4702 70.2341 62.5342 61.0746 60.2276 63.916Z" fill="black"/>
<path d="M92.8878 66.3566C91.1829 70.8361 91.4169 75.0147 93.6901 81.5668C96.5984 89.8238 96.5984 92.8993 93.8238 98.7828C90.8486 105.067 90.9154 106.505 93.9575 103.363C100.242 96.9108 101.011 90.1247 96.7321 79.0262C95.1609 75.0147 94.7264 73.1761 94.2584 68.8972C93.9241 65.7549 93.4561 64.8857 92.8878 66.3566Z" fill="black"/>
<path d="M58.1549 100.889C57.9878 101.223 57.4529 102.861 56.9849 104.499C50.0651 129.17 30.8434 138.597 25.1604 120.11C23.6896 115.263 22.319 115.263 19.7784 120.177C8.17848 142.474 23.9236 160.192 46.8225 150.598C48.4939 149.929 48.4271 149.896 48.4271 151.5C48.4939 164.939 62.4004 173.697 75.6718 168.616C76.0729 168.449 76.1732 168.649 76.1732 169.519C76.2401 184.729 94.6929 193.487 107.429 184.361C116.088 178.177 120.567 162.833 113.38 164.003C100.108 166.176 96.4312 152.537 100.108 114.695C100.677 108.611 100.476 106.17 99.1724 103.429C97.9355 100.889 97.6681 101.424 97.2335 107.441C97.0329 109.848 96.6652 113.692 96.4312 115.999C96.1638 118.305 95.8629 122.116 95.7626 124.523C95.6624 126.896 95.3949 132.412 95.1943 136.725C94.1246 158.922 98.8047 168.248 110.772 167.78C112.343 167.713 113.614 167.747 113.614 167.847C113.614 169.418 110.906 174.8 108.833 177.341C98.5373 190.011 79.817 183.893 79.817 167.881C79.817 163.033 79.2487 162.498 75.5715 164.103C62.9687 169.585 52.1043 163.1 52.1043 150.063C52.1043 144.881 51.77 144.748 44.3153 146.887C33.618 149.996 29.2388 149.762 24.9933 145.851C20.1461 141.371 18.5081 133.515 20.8815 126.395C22.1518 122.584 22.1184 122.618 23.3553 125.024C30.4088 138.998 48.7614 133.783 55.7815 115.765C58.3221 109.213 60.2944 96.8772 58.1549 100.889Z" fill="black"/>
<path d="M5.67132 156.816C4.20044 159.222 4.33416 161.83 6.07247 163.535C7.17563 164.638 7.17563 164.638 5.10302 166.543C-0.11191 171.457 -0.84735 178.11 3.39814 182.222C6.23961 184.996 8.47936 184.796 11.5548 181.586C13.8614 179.18 13.9283 178.946 13.2597 175.803C12.4908 172.059 14.1623 168.282 17.2043 166.811C22.0516 164.437 20.9818 161.73 13.828 158.353C7.81078 155.512 6.60733 155.278 5.67132 156.816Z" fill="black"/>
<path d="M43.4461 158.487C39.5683 164.738 34.3868 167.446 26.1298 167.513C19.0763 167.58 18.3409 168.115 23.5892 169.351C32.2139 171.424 41.1729 167.814 44.2484 161.061C45.8864 157.417 45.2847 155.478 43.4461 158.487Z" fill="black"/>
<path d="M54.1769 171.457C47.2905 178.244 34.8883 180.55 20.8816 177.675C16.9035 176.84 16.4021 176.806 16.8366 177.475C19.3104 181.52 35.6906 182.556 45.3516 179.313C51.1683 177.374 58.4558 171.357 57.2858 169.485C56.9181 168.883 56.5169 169.117 54.1769 171.457Z" fill="black"/>
<path d="M65.9774 175.001C61.8991 184.796 60.6956 205.889 64.1722 206.524C65.0748 206.692 65.1417 205.923 65.476 195.894C65.8103 186.333 66.0777 182.957 66.9803 178.043C67.7826 173.831 67.2143 172.093 65.9774 175.001Z" fill="black"/>
<path d="M79.2153 182.656C78.9813 182.957 78.5132 185.397 78.1455 188.139C77.3432 194.49 76.8084 196.997 75.3375 201.243C73.4655 206.692 74.1006 208.965 76.7415 206.324C78.9144 204.118 79.8504 199.605 80.0844 190.278C80.2516 182.857 80.1178 181.553 79.2153 182.656Z" fill="black"/>
<path d="M60.1607 208.932C57.453 210.102 56.5838 211.506 55.2801 217.122C54.2438 221.501 54.1769 221.334 56.9181 222.437C60.4281 223.841 61.2973 223.607 62.601 221.033C63.1693 219.93 63.1693 219.93 64.5734 221.066C71.6937 226.883 83.8619 224.576 83.8619 217.423C83.8619 211.907 79.6833 209.065 74.0338 210.737C72.5629 211.171 70.9249 211.606 70.4569 211.74C69.1197 212.041 66.4119 211.171 64.9076 209.968C63.4368 208.798 61.5313 208.363 60.1607 208.932Z" fill="black"/>
</svg>
